<svg viewBox="0 0 130 17" fill="none" xmlns="http://www.w3.org/2000/svg">
  <path d="M8.56067 16.1234C11.1971 16.1234 13.6781 15.3158 15.563 13.8476V7.09089H8.34615V9.55167H12.5083V12.3482L12.4454 12.3894C11.3293 13.1169 9.98305 13.5025 8.5599 13.5025C5.51073 13.5025 3.12223 11.1116 3.12223 8.06168C3.12223 5.15008 5.56203 2.78024 8.5599 2.78024C10.2963 2.78024 11.8733 3.30411 13.0128 4.25391L14.9233 2.17553C13.2747 0.751605 11.0782 1.25259e-07 8.5599 1.25259e-07C3.84041 -0.000777129 0 3.61579 0 8.06012C0 12.5068 3.84041 16.1234 8.56067 16.1234Z" fill="black" />
  <path d="M37.8048 15.936H37.7909H35.1855C34.7059 15.936 34.0126 15.8373 33.5502 15.3834C32.1643 14.0232 30.6456 12.3047 28.1957 9.54468L25.9898 9.5509V15.9392H22.9811V0.157013H29.1019C32.9206 0.157013 34.88 2.03952 34.88 5.07392C34.88 7.94043 31.9871 9.05268 31.6234 9.18482L37.1799 15.3104L37.8048 15.936ZM25.9906 7.30464H28.6612C31.22 7.30464 31.8899 6.25379 31.8899 4.73115C31.8899 3.01731 30.5204 2.48022 28.6612 2.48022H25.9906V7.30464Z" fill="black" />
  <path d="M53.8676 12.6832L55.3249 15.9392H58.4596L50.9164 0.157013H49.473L41.95 15.9392H45.0862L46.5202 12.6832H53.8676ZM50.1811 4.48088L52.8292 10.2481H47.5594L50.1811 4.48088Z" fill="black" />
  <path d="M67.9475 0.157013H64.9395V15.9392H67.9475V0.157013Z" fill="black" />
  <path d="M77.05 0.157013V15.9392H88.303V13.4784H80.0377V0.157013H77.05Z" fill="black" />
  <path d="M105.619 9.28275V6.8173H98.3568V2.71107H107.032V0.157013H95.46V15.9392H107.51V13.389H98.3568V9.28275H105.619Z" fill="black" />
  <path d="M121.175 0.157013H114.811V15.9392H121.709C125.827 15.9392 129.305 12.3319 129.305 8.06013C129.305 3.70362 125.657 0.157013 121.175 0.157013ZM121.43 13.2312H117.78V2.87196H121.175C123.994 2.87196 126.293 5.20061 126.293 8.06091C126.292 10.8629 124.067 13.2312 121.43 13.2312Z" fill="black" />
</svg>